<svg data-v-fde0c5aa="" xmlns="http://www.w3.org/2000/svg" viewBox="0 0 300 300" class="iconLeft"><!----><defs data-v-fde0c5aa=""><!----></defs><rect data-v-fde0c5aa="" fill="#000000" x="0" y="0" width="300px" height="300px" class="logo-background-square"></rect><defs data-v-fde0c5aa=""><!----></defs><g data-v-fde0c5aa="" id="2eb4d996-745e-4f51-82a0-e02565aadf4f" fill="#FFFFFF" transform="matrix(1.822485964078416,0,0,1.822485964078416,76.87660589518016,131.60200370597215)"><path d="M-0.04 4.69L-0.14 4.69L-0.14 4.69Q-0.14 4.06-0.21 3.44L-0.21 3.44L-0.21 3.44Q2.60 3.49 3.41 3.49L3.41 3.49L3.41 3.49Q4.21 3.49 7.03 3.44L7.03 3.44L7.03 3.44Q6.93 4.30 6.93 4.69L6.93 4.69L6.83 4.69L6.83 4.69Q5.28 4.30 4.19 4.27L4.19 4.27L4.19 4.27Q4.12 5.00 4.12 6.52L4.12 6.52L4.12 10.37L4.12 10.37Q4.12 12.26 4.33 13.19L4.33 13.19L4.33 13.29L2.49 13.29L2.49 13.19L2.49 13.19Q2.67 12.28 2.67 10.43L2.67 10.43L2.67 6.58L2.67 6.58Q2.67 5.00 2.60 4.27L2.60 4.27L2.60 4.27Q1.54 4.30-0.04 4.69L-0.04 4.69ZM9.63 13.45L9.63 13.45L9.63 13.45Q8.16 13.45 7.31 12.52L7.31 12.52L7.31 12.52Q6.45 11.59 6.45 10.09L6.45 10.09L6.45 10.09Q6.45 8.58 7.45 7.49L7.45 7.49L7.45 7.49Q8.44 6.40 9.95 6.40L9.95 6.40L9.95 6.40Q11.45 6.40 12.27 7.31L12.27 7.31L12.27 7.31Q13.09 8.22 13.09 9.74L13.09 9.74L13.09 9.74Q13.09 11.27 12.10 12.36L12.10 12.36L12.10 12.36Q11.10 13.45 9.63 13.45ZM11.61 10.09L11.61 10.09L11.61 10.09Q11.61 8.71 11.17 7.95L11.17 7.95L11.17 7.95Q10.74 7.20 9.63 7.20L9.63 7.20L9.63 7.20Q8.92 7.20 8.51 7.50L8.51 7.50L8.51 7.50Q8.26 7.83 8.10 8.48L8.10 8.48L8.10 8.48Q7.94 9.14 7.94 9.74L7.94 9.74L7.94 9.74Q7.94 12.67 10.01 12.67L10.01 12.67L10.01 12.67Q10.65 12.67 11.06 12.38L11.06 12.38L11.06 12.38Q11.33 12.05 11.47 11.38L11.47 11.38L11.47 11.38Q11.61 10.71 11.61 10.09ZM18.87 6.40L18.87 6.40L18.87 6.40Q19.88 6.40 20.43 7.04L20.43 7.04L20.43 7.04Q20.99 7.69 20.99 8.89L20.99 8.89L20.99 10.91L20.99 10.91Q20.99 12.24 21.41 13.19L21.41 13.19L21.41 13.29L19.43 13.29L19.43 13.19L19.43 13.19Q19.67 12.49 19.67 11.33L19.67 11.33L19.67 9.18L19.67 9.18Q19.67 8.37 19.43 7.96L19.43 7.96L19.43 7.96Q19.18 7.55 18.44 7.55L18.44 7.55L18.44 7.55Q17.70 7.55 16.53 8.26L16.53 8.26L16.53 10.91L16.53 10.91Q16.53 12.26 16.94 13.19L16.94 13.19L16.94 13.29L14.98 13.29L14.98 13.19L14.98 13.19Q15.22 12.49 15.22 11.33L15.22 11.33L15.22 8.95L15.22 8.95Q15.22 8.34 14.97 7.76L14.97 7.76L14.97 7.76Q14.73 7.18 14.41 6.99L14.41 6.99L14.39 6.82L16.23 6.38L16.31 6.52L16.31 6.52Q16.42 7.04 16.48 7.57L16.48 7.57L16.48 7.57Q17.00 7.17 17.28 6.97L17.28 6.97L17.28 6.97Q17.57 6.78 18.02 6.59L18.02 6.59L18.02 6.59Q18.47 6.40 18.87 6.40ZM25.73 12.00L25.73 12.00L25.73 12.00Q27.08 7.90 27.08 7.13L27.08 7.13L27.08 7.13Q27.08 6.89 26.98 6.73L26.98 6.73L26.98 6.57L28.48 6.57L28.48 6.73L28.48 6.73Q28.27 6.92 26.19 13.15L26.19 13.15L26.19 13.15Q25.20 16.06 25.06 16.62L25.06 16.62L25.06 16.73L23.32 16.86L23.31 16.76L23.31 16.76Q24.33 15.54 25.10 13.48L25.10 13.48L25.10 13.48Q25.02 13.24 22.68 7.71L22.68 7.71L22.68 7.71Q22.40 7.06 22.08 6.79L22.08 6.79L22.08 6.62L23.95 6.47L23.95 6.64L23.95 6.64Q23.95 7.00 24.29 8.04L24.29 8.04L24.29 8.04Q24.63 9.09 25.73 12.00ZM30.88 3.50L30.98 3.57L30.98 3.57Q31.09 3.65 31.09 4.10L31.09 4.10L31.09 4.10Q31.09 4.55 30.94 5.77L30.94 5.77L30.94 5.77Q30.79 6.99 30.63 7.31L30.63 7.31L30.24 7.31L30.24 7.31Q30.09 6.99 29.95 5.82L29.95 5.82L29.95 5.82Q29.81 4.65 29.81 4.19L29.81 4.19L29.81 4.19Q29.81 3.72 29.90 3.58L29.90 3.58L30.03 3.50L30.03 3.50Q30.25 3.44 30.41 3.44L30.41 3.44L30.41 3.44Q30.60 3.44 30.88 3.50L30.88 3.50ZM34.66 7.28L34.66 7.28L34.66 7.28Q34.41 7.53 34.41 7.97L34.41 7.97L34.41 7.97Q34.41 8.41 34.69 8.66L34.69 8.66L34.69 8.66Q34.97 8.90 35.40 9.02L35.40 9.02L35.40 9.02Q35.83 9.13 36.32 9.30L36.32 9.30L36.32 9.30Q36.81 9.46 37.23 9.65L37.23 9.65L37.23 9.65Q37.66 9.84 37.94 10.26L37.94 10.26L37.94 10.26Q38.22 10.68 38.22 11.28L38.22 11.28L38.22 11.28Q38.22 12.35 37.44 12.89L37.44 12.89L37.44 12.89Q36.65 13.44 35.37 13.44L35.37 13.44L35.37 13.44Q34.09 13.44 33.10 12.78L33.10 12.78L33.10 12.78Q33.14 12.07 33.52 11.51L33.52 11.51L33.52 11.51Q34.78 12.66 35.81 12.66L35.81 12.66L35.81 12.66Q36.26 12.66 36.61 12.47L36.61 12.47L36.61 12.47Q36.95 12.18 36.95 11.68L36.95 11.68L36.95 11.68Q36.95 11.19 36.56 10.91L36.56 10.91L36.56 10.91Q36.18 10.64 35.63 10.49L35.63 10.49L35.63 10.49Q35.08 10.33 34.54 10.14L34.54 10.14L34.54 10.14Q33.99 9.94 33.61 9.52L33.61 9.52L33.61 9.52Q33.22 9.10 33.22 8.43L33.22 8.43L33.22 8.43Q33.22 7.45 33.96 6.92L33.96 6.92L33.96 6.92Q34.69 6.40 35.81 6.40L35.81 6.40L35.81 6.40Q36.93 6.40 38.01 6.87L38.01 6.87L38.01 6.87Q37.88 7.49 37.52 8.11L37.52 8.11L37.52 8.11Q36.53 7.11 35.45 7.11L35.45 7.11L35.45 7.11Q34.99 7.11 34.66 7.28ZM51.67 6.85L51.30 7.66L50.36 7.66L50.36 7.66Q50.41 8.27 50.41 8.78L50.41 8.78L50.41 8.78Q50.41 10.15 49.97 11.13L49.97 11.13L49.97 11.13Q51.25 12.01 52.85 12.84L52.85 12.84L51.93 14.08L51.93 14.08Q50.86 13.22 50.40 12.89L50.40 12.89L49.38 12.10L49.38 12.10Q48.23 13.45 46.14 13.45L46.14 13.45L46.14 13.45Q44.34 13.45 43.44 12.56L43.44 12.56L43.44 12.56Q42.53 11.66 42.53 10.23L42.53 10.23L42.53 10.23Q42.53 9.55 42.74 9.00L42.74 9.00L42.74 9.00Q42.95 8.46 43.27 8.16L43.27 8.16L43.27 8.16Q43.85 7.64 44.39 7.49L44.39 7.49L44.39 7.49Q43.48 6.30 43.48 5.24L43.48 5.24L43.48 5.24Q43.48 3.33 45.99 3.33L45.99 3.33L45.99 3.33Q47.36 3.33 48.58 3.74L48.58 3.74L48.58 3.74Q48.48 4.62 48.06 5.17L48.06 5.17L48.06 5.17Q46.82 4.12 45.89 4.12L45.89 4.12L45.89 4.12Q45.28 4.12 44.93 4.46L44.93 4.46L44.93 4.46Q44.59 4.80 44.59 5.46L44.59 5.46L44.59 5.46Q44.59 6.75 47.22 9.00L47.22 9.00L47.22 9.00Q48.22 9.87 49.28 10.64L49.28 10.64L49.28 10.64Q49.42 9.98 49.42 9.22L49.42 9.22L49.42 9.22Q49.42 8.46 49.15 7.62L49.15 7.62L47.67 7.64L48.23 6.83L48.23 6.83Q49.29 6.93 49.78 6.93L49.78 6.93L51.67 6.85ZM48.83 11.65L48.83 11.65L48.83 11.65Q45.99 9.32 44.80 7.97L44.80 7.97L44.80 7.97Q43.88 8.60 43.88 9.95L43.88 9.95L43.88 9.95Q43.88 11.03 44.53 11.79L44.53 11.79L44.53 11.79Q45.19 12.54 46.52 12.54L46.52 12.54L46.52 12.54Q48.13 12.54 48.83 11.65ZM57.76 10.50L57.76 10.50L57.76 6.43L57.76 6.43Q57.76 4.28 57.53 3.58L57.53 3.58L57.53 3.49L59.42 3.49L59.42 3.58L59.42 3.58Q59.21 4.26 59.21 6.43L59.21 6.43L59.21 11.10L59.21 11.10Q59.21 12.26 58.94 13.48L58.94 13.48L58.94 13.48Q58.83 14.04 58.24 14.98L58.24 14.98L58.24 14.98Q58.10 15.20 57.74 15.54L57.74 15.54L57.74 15.54Q57.32 15.93 56.27 16.74L56.27 16.74L55.76 16.27L55.76 16.27Q55.96 16.14 56.41 15.72L56.41 15.72L56.41 15.72Q57.25 14.97 57.51 13.92L57.51 13.92L57.51 13.92Q57.76 12.87 57.76 10.50ZM65.55 11.80L65.55 10.49L65.55 10.49Q64.97 10.28 64.23 10.28L64.23 10.28L64.23 10.28Q63.48 10.28 63.14 10.51L63.14 10.51L63.14 10.51Q62.93 10.84 62.93 11.38L62.93 11.38L62.93 11.38Q62.93 11.91 63.22 12.22L63.22 12.22L63.22 12.22Q63.52 12.53 63.96 12.53L63.96 12.53L63.96 12.53Q64.40 12.53 64.86 12.30L64.86 12.30L64.86 12.30Q65.32 12.07 65.55 11.80L65.55 11.80ZM65.77 12.50L65.77 12.50L65.77 12.50Q64.92 13.44 63.85 13.44L63.85 13.44L63.85 13.44Q62.78 13.44 62.17 12.98L62.17 12.98L62.17 12.98Q61.56 12.52 61.56 11.49L61.56 11.49L61.56 11.49Q61.56 10.46 62.28 10.01L62.28 10.01L62.28 10.01Q63.00 9.56 64.32 9.56L64.32 9.56L65.55 9.60L65.55 8.81L65.55 8.81Q65.55 8.06 65.18 7.60L65.18 7.60L65.18 7.60Q64.82 7.14 64.08 7.14L64.08 7.14L64.08 7.14Q63.53 7.15 62.33 8.19L62.33 8.19L62.33 8.19Q61.92 7.67 61.75 6.85L61.75 6.85L61.75 6.85Q63.14 6.40 64.30 6.40L64.30 6.40L64.30 6.40Q65.46 6.40 66.16 7.00L66.16 7.00L66.16 7.00Q66.86 7.60 66.86 8.71L66.86 8.71L66.86 11.06L66.86 11.06Q66.88 11.69 67.07 12.23L67.07 12.23L67.07 12.23Q67.26 12.77 67.56 12.98L67.56 12.98L67.59 13.12L66.09 13.48L66.09 13.48Q65.91 13.03 65.77 12.50ZM70.24 7.28L70.24 7.28L70.24 7.28Q69.99 7.53 69.99 7.97L69.99 7.97L69.99 7.97Q69.99 8.41 70.27 8.66L70.27 8.66L70.27 8.66Q70.55 8.90 70.97 9.02L70.97 9.02L70.97 9.02Q71.40 9.13 71.89 9.30L71.89 9.30L71.89 9.30Q72.38 9.46 72.81 9.65L72.81 9.65L72.81 9.65Q73.23 9.84 73.51 10.26L73.51 10.26L73.51 10.26Q73.79 10.68 73.79 11.28L73.79 11.28L73.79 11.28Q73.79 12.35 73.01 12.89L73.01 12.89L73.01 12.89Q72.23 13.44 70.95 13.44L70.95 13.44L70.95 13.44Q69.66 13.44 68.67 12.78L68.67 12.78L68.67 12.78Q68.71 12.07 69.09 11.51L69.09 11.51L69.09 11.51Q70.35 12.66 71.39 12.66L71.39 12.66L71.39 12.66Q71.83 12.66 72.18 12.47L72.18 12.47L72.18 12.47Q72.52 12.18 72.52 11.68L72.52 11.68L72.52 11.68Q72.52 11.19 72.14 10.91L72.14 10.91L72.14 10.91Q71.75 10.64 71.20 10.49L71.20 10.49L71.20 10.49Q70.66 10.33 70.11 10.14L70.11 10.14L70.11 10.14Q69.57 9.94 69.18 9.52L69.18 9.52L69.18 9.52Q68.80 9.10 68.80 8.43L68.80 8.43L68.80 8.43Q68.80 7.45 69.53 6.92L69.53 6.92L69.53 6.92Q70.27 6.40 71.39 6.40L71.39 6.40L71.39 6.40Q72.51 6.40 73.58 6.87L73.58 6.87L73.58 6.87Q73.46 7.49 73.09 8.11L73.09 8.11L73.09 8.11Q72.10 7.11 71.02 7.11L71.02 7.11L71.02 7.11Q70.56 7.11 70.24 7.28ZM78.19 13.45L78.19 13.45L78.19 13.45Q76.72 13.45 75.87 12.52L75.87 12.52L75.87 12.52Q75.01 11.59 75.01 10.09L75.01 10.09L75.01 10.09Q75.01 8.58 76.01 7.49L76.01 7.49L76.01 7.49Q77.00 6.40 78.51 6.40L78.51 6.40L78.51 6.40Q80.01 6.40 80.83 7.31L80.83 7.31L80.83 7.31Q81.65 8.22 81.65 9.74L81.65 9.74L81.65 9.74Q81.65 11.27 80.65 12.36L80.65 12.36L80.65 12.36Q79.66 13.45 78.19 13.45ZM80.16 10.09L80.16 10.09L80.16 10.09Q80.16 8.71 79.73 7.95L79.73 7.95L79.73 7.95Q79.30 7.20 78.19 7.20L78.19 7.20L78.19 7.20Q77.48 7.20 77.07 7.50L77.07 7.50L77.07 7.50Q76.82 7.83 76.66 8.48L76.66 8.48L76.66 8.48Q76.50 9.14 76.50 9.74L76.50 9.74L76.50 9.74Q76.50 12.67 78.57 12.67L78.57 12.67L78.57 12.67Q79.21 12.67 79.62 12.38L79.62 12.38L79.62 12.38Q79.88 12.05 80.02 11.38L80.02 11.38L80.02 11.38Q80.16 10.71 80.16 10.09ZM87.43 6.40L87.43 6.40L87.43 6.40Q88.44 6.40 88.99 7.04L88.99 7.04L88.99 7.04Q89.54 7.69 89.54 8.89L89.54 8.89L89.54 10.91L89.54 10.91Q89.54 12.24 89.96 13.19L89.96 13.19L89.96 13.29L87.99 13.29L87.99 13.19L87.99 13.19Q88.23 12.49 88.23 11.33L88.23 11.33L88.23 9.18L88.23 9.18Q88.23 8.37 87.98 7.96L87.98 7.96L87.98 7.96Q87.74 7.55 87.00 7.55L87.00 7.55L87.00 7.55Q86.25 7.55 85.09 8.26L85.09 8.26L85.09 10.91L85.09 10.91Q85.09 12.26 85.50 13.19L85.50 13.19L85.50 13.29L83.54 13.29L83.54 13.19L83.54 13.19Q83.78 12.49 83.78 11.33L83.78 11.33L83.78 8.95L83.78 8.95Q83.78 8.34 83.53 7.76L83.53 7.76L83.53 7.76Q83.29 7.18 82.96 6.99L82.96 6.99L82.95 6.82L84.78 6.38L84.87 6.52L84.87 6.52Q84.98 7.04 85.04 7.57L85.04 7.57L85.04 7.57Q85.55 7.17 85.84 6.97L85.84 6.97L85.84 6.97Q86.13 6.78 86.58 6.59L86.58 6.59L86.58 6.59Q87.02 6.40 87.43 6.40ZM93.14 3.50L93.24 3.57L93.24 3.57Q93.35 3.65 93.35 4.10L93.35 4.10L93.35 4.10Q93.35 4.55 93.20 5.77L93.20 5.77L93.20 5.77Q93.04 6.99 92.89 7.31L92.89 7.31L92.50 7.31L92.50 7.31Q92.34 6.99 92.20 5.82L92.20 5.82L92.20 5.82Q92.06 4.65 92.06 4.19L92.06 4.19L92.06 4.19Q92.06 3.72 92.16 3.58L92.16 3.58L92.29 3.50L92.29 3.50Q92.51 3.44 92.67 3.44L92.67 3.44L92.67 3.44Q92.86 3.44 93.14 3.50L93.14 3.50ZM96.92 7.28L96.92 7.28L96.92 7.28Q96.67 7.53 96.67 7.97L96.67 7.97L96.67 7.97Q96.67 8.41 96.95 8.66L96.95 8.66L96.95 8.66Q97.23 8.90 97.66 9.02L97.66 9.02L97.66 9.02Q98.08 9.13 98.57 9.30L98.57 9.30L98.57 9.30Q99.06 9.46 99.49 9.65L99.49 9.65L99.49 9.65Q99.92 9.84 100.20 10.26L100.20 10.26L100.20 10.26Q100.48 10.68 100.48 11.28L100.48 11.28L100.48 11.28Q100.48 12.35 99.69 12.89L99.69 12.89L99.69 12.89Q98.91 13.44 97.63 13.44L97.63 13.44L97.63 13.44Q96.35 13.44 95.35 12.78L95.35 12.78L95.35 12.78Q95.40 12.07 95.77 11.51L95.77 11.51L95.77 11.51Q97.03 12.66 98.07 12.66L98.07 12.66L98.07 12.66Q98.52 12.66 98.87 12.47L98.87 12.47L98.87 12.47Q99.20 12.18 99.20 11.68L99.20 11.68L99.20 11.68Q99.20 11.19 98.82 10.91L98.82 10.91L98.82 10.91Q98.43 10.64 97.89 10.49L97.89 10.49L97.89 10.49Q97.34 10.33 96.80 10.14L96.80 10.14L96.80 10.14Q96.25 9.94 95.87 9.52L95.87 9.52L95.87 9.52Q95.48 9.10 95.48 8.43L95.48 8.43L95.48 8.43Q95.48 7.45 96.22 6.92L96.22 6.92L96.22 6.92Q96.95 6.40 98.07 6.40L98.07 6.40L98.07 6.40Q99.19 6.40 100.27 6.87L100.27 6.87L100.27 6.87Q100.14 7.49 99.78 8.11L99.78 8.11L99.78 8.11Q98.78 7.11 97.71 7.11L97.71 7.11L97.71 7.11Q97.24 7.11 96.92 7.28Z"></path></g><defs data-v-fde0c5aa=""><!----></defs><g data-v-fde0c5aa="" id="52f05077-a042-4a02-9c49-97526b7f9193" stroke="none" fill="#DD3F3F" transform="matrix(0.37989247297466106,0,0,0.37989247297466106,32.76860771411564,130.99829124520443)"><path d="M20.1 52.1c.6 2.3 1.9 6.7 4.7 9.3.9 3.4 2.6 7.1 5 10.4l9 22.7c1 2.5 3.4 4.2 6.1 4.2h10c2.7 0 5.1-1.7 6.1-4.2l9-22.7c2.5-3.3 4.2-7 5.1-10.4 2.8-2.6 4-7 4.7-9.3 1-3.7 2.1-9-.7-12.7-.1-.1-.2-.3-.3-.4 1.3-6.2 3.7-23.7-9.6-31.9 0 0 2.9-2.3 2.7-5.7 0 0-15.9 1.8-23.6.2C40.7 0 32.5 6 31.1 11.7l-.2.2c-1.4.1-13.5 1.4-10.2 23.3.1 1.2.2 2.4.5 3.7-.1.1-.2.3-.3.4-2.9 3.8-1.8 9.1-.8 12.8zm35.3 24.3c-1.8.6-3.6 1-5.5 1-1.8 0-3.7-.3-5.4-.9-5.1-1.8-8.9-5.5-11.5-9.7 1.6 1.2 3.8 2.2 7.1 2.2 5.2 0 8.5-2 9.9-3.9 1.4 1.9 4.7 3.9 9.9 3.9 3.2 0 5.4-.9 7-2.1-2.6 4-6.5 7.7-11.5 9.5zM27.2 41.8h.4s1.7-22.6 20-14.8c9.6 4.1 16.7 3.9 21.3 2.8 5.8 4 4.1 10.7 3.8 11.8 0 .1 0 .1-.1.2h.4c1.9 0 3.8 1.5 1.7 8.8-1.6 5.7-3.1 7.3-4.3 7.4-.3 1.6-.8 3.4-1.5 5.1-.6.3-1.6.6-2.8.6-3.2 0-5.8-4.1-10.3-4.1-1.3 0-3.1.2-5.7 2-2.6-1.9-4.4-2-5.7-2-4.5 0-7.1 4.1-10.3 4.1-1.3 0-2.2-.3-2.9-.6-.7-1.7-1.2-3.5-1.5-5.1-1.1-.1-2.6-1.7-4.3-7.4-2.1-7.3-.1-8.8 1.8-8.8z"></path></g><!----></svg>